# xmcd CD database generated by RipIT
#
# Track frame offsets:
# 150
# 14912
# 29018
# 48338
# 63625
# 78511
# 92252
# 109573
# 122186
# 139185
# 157717
# 174751
#
# Disc length: 2572 seconds
#
# Revision: 2
# Processed by: cddbd v1.5.2PL0 Copyright (c) Steve Scherf et al.
# Submitted via: RipIT 3.9.0 www.suwald.com/ripit/ripit.html on 2016-05-08 at 20:40
#
DISCID=950a0a0c
DTITLE=The Dead Weather - Dodge And Burn
DYEAR=2015
DGENRE=Grunge
TTITLE0=I Feel Love (Every Million Miles)
TTITLE1=Buzzkill(er)
TTITLE2=Let Me Through
TTITLE3=Three Dollar Hat
TTITLE4=Lose The Right
TTITLE5=Rough Detective
TTITLE6=Open Up
TTITLE7=Be Still
TTITLE8=Mile Markers
TTITLE9=Cop And Go
TTITLE10=Too Bad
TTITLE11=Impossible Winner
EXTD=
EXTT0=
EXTT1=
EXTT2=
EXTT3=
EXTT4=
EXTT5=
EXTT6=
EXTT7=
EXTT8=
EXTT9=
EXTT10=
EXTT11=
PLAYORDER=
